#usda 1.0
(
    customLayerData = {
        string creator = "MuJoCo USD Converter v0.1.0a4"
    }
    defaultPrim = "yam_v0"
    kilogramsPerUnit = 1
    metersPerUnit = 1
    upAxis = "Z"
)

def Xform "yam_v0" (
    prepend apiSchemas = ["GeomModelAPI"]
    assetInfo = {
        string name = "yam_v0"
    }
    kind = "component"
    prepend payload = @./Payload/Contents.usda@
)
{
    float3[] extentsHint = [(-0.27549183, -0.1, -0.01), (0.25714266, 0.1, 0.2564998), (3.4028235e38, 3.4028235e38, 3.4028235e38), (-3.4028235e38, -3.4028235e38, -3.4028235e38), (3.4028235e38, 3.4028235e38, 3.4028235e38), (-3.4028235e38, -3.4028235e38, -3.4028235e38), (-0.278, -0.05797501, -0.017), (0.2568, 0.05802499, 0.269)]
}

def PhysicsScene "PhysicsScene" (
    prepend payload = @./Payload/Contents.usda@</PhysicsScene>
)
{
}

